STARTFONT 2.1
FONT -FontForge-Henny Penny-Book-R-Normal--20-200-72-72-P-115-ISO10646-1
SIZE 20 72 72
FONTBOUNDINGBOX 28 36 -3 -13
COMMENT "Generated by fontforge, http://fontforge.sourceforge.net"
COMMENT "Copyright (c) 2012, Brownfox (gayaneh.b@gmail.com), with Reserved Font Name "Henny Penny""
STARTPROPERTIES 39
FOUNDRY "FontForge"
FAMILY_NAME "Henny Penny"
WEIGHT_NAME "Book"
SLANT "R"
SETWIDTH_NAME "Normal"
ADD_STYLE_NAME ""
PIXEL_SIZE 20
POINT_SIZE 200
RESOLUTION_X 72
RESOLUTION_Y 72
SPACING "P"
AVERAGE_WIDTH 115
CHARSET_REGISTRY "ISO10646"
CHARSET_ENCODING "1"
FONTNAME_REGISTRY ""
CHARSET_COLLECTIONS "ISO10646-1"
FONT_NAME "HennyPenny-Regular"
FACE_NAME "Henny Penny"
COPYRIGHT "Copyright (c) 2012, Brownfox (gayaneh.b@gmail.com), with Reserved Font Name "Henny Penny""
FONT_VERSION "1.001"
FONT_ASCENT 16
FONT_DESCENT 4
UNDERLINE_POSITION -2
UNDERLINE_THICKNESS 1
X_HEIGHT 11
CAP_HEIGHT 15
RAW_ASCENT 799
RAW_DESCENT 200
NORM_SPACE 5
RELATIVE_WEIGHT 40
RELATIVE_SETWIDTH 50
SUPERSCRIPT_X 0
SUPERSCRIPT_Y 7
SUPERSCRIPT_SIZE 12
SUBSCRIPT_X 0
SUBSCRIPT_Y 1
SUBSCRIPT_SIZE 12
AVG_LOWERCASE_WIDTH 103
AVG_UPPERCASE_WIDTH 144
ENDPROPERTIES
CHARS 233
STARTCHAR space
ENCODING 32
SWIDTH 270 0
DWIDTH 5 0
BBX 1 1 0 0
BITMAP
00
ENDCHAR
STARTCHAR exclam
ENCODING 33
SWIDTH 249 0
DWIDTH 5 0
BBX 3 20 1 -1
BITMAP
C0
E0
E0
E0
E0
E0
60
60
40
40
40
40
40
40
40
00
00
E0
E0
E0
ENDCHAR
STARTCHAR quotedbl
ENCODING 34
SWIDTH 292 0
DWIDTH 6 0
BBX 3 7 1 9
BITMAP
A0
A0
A0
A0
A0
A0
A0
ENDCHAR
STARTCHAR numbersign
ENCODING 35
SWIDTH 1030 0
DWIDTH 21 0
BBX 19 22 1 -6
BITMAP
002000
004000
004800
004800
009000
009000
FFF000
012FE0
022000
024000
024300
07FC00
FC8000
090000
090000
1A0000
120000
320000
240000
040000
080000
080000
ENDCHAR
STARTCHAR dollar
ENCODING 36
SWIDTH 799 0
DWIDTH 16 0
BBX 12 22 2 -5
BITMAP
0100
0110
07E0
1D60
1920
1920
1E40
1E00
0F00
0780
0380
05C0
44E0
44E0
44E0
4860
68C0
B8C0
8F00
1000
1000
1000
ENDCHAR
STARTCHAR percent
ENCODING 37
SWIDTH 789 0
DWIDTH 16 0
BBX 16 19 0 0
BITMAP
0004
3C08
6610
6310
6320
6340
7240
3C80
0100
0100
023C
0466
08C3
08C3
10C3
20C3
2066
403C
8000
ENDCHAR
STARTCHAR ampersand
ENCODING 38
SWIDTH 773 0
DWIDTH 15 0
BBX 14 20 1 -2
BITMAP
0E00
1100
2100
2100
2300
2600
3C00
3810
3818
7878
6D90
EC10
E610
E710
E3A0
E1C0
70E4
1F7C
0038
0018
ENDCHAR
STARTCHAR quotesingle
ENCODING 39
SWIDTH 174 0
DWIDTH 4 0
BBX 1 6 1 10
BITMAP
80
80
80
80
80
80
ENDCHAR
STARTCHAR parenleft
ENCODING 40
SWIDTH 431 0
DWIDTH 9 0
BBX 8 28 0 -8
BITMAP
08
10
10
20
20
60
60
40
C0
C0
C0
C0
C0
C0
C0
C0
E0
60
60
60
30
30
18
18
0C
04
02
01
ENDCHAR
STARTCHAR parenright
ENCODING 41
SWIDTH 443 0
DWIDTH 9 0
BBX 8 19 1 -4
BITMAP
40
30
18
0C
0E
06
07
03
03
03
03
03
07
06
06
0C
18
30
E0
ENDCHAR
STARTCHAR asterisk
ENCODING 42
SWIDTH 490 0
DWIDTH 10 0
BBX 8 8 1 10
BITMAP
18
19
0B
CC
F8
14
26
03
ENDCHAR
STARTCHAR plus
ENCODING 43
SWIDTH 440 0
DWIDTH 9 0
BBX 7 11 1 1
BITMAP
08
08
08
08
08
FE
08
08
08
08
08
ENDCHAR
STARTCHAR comma
ENCODING 44
SWIDTH 251 0
DWIDTH 5 0
BBX 3 7 1 -4
BITMAP
E0
E0
E0
60
40
40
80
ENDCHAR
STARTCHAR hyphen
ENCODING 45
SWIDTH 436 0
DWIDTH 9 0
BBX 7 1 1 4
BITMAP
FE
ENDCHAR
STARTCHAR period
ENCODING 46
SWIDTH 238 0
DWIDTH 5 0
BBX 3 3 1 -1
BITMAP
E0
E0
E0
ENDCHAR
STARTCHAR slash
ENCODING 47
SWIDTH 690 0
DWIDTH 14 0
BBX 14 19 0 0
BITMAP
0004
0008
0008
0010
0020
0020
0040
0080
0100
0100
0200
0400
0C00
0800
1000
2000
2000
4000
8000
ENDCHAR
STARTCHAR zero
ENCODING 48
SWIDTH 723 0
DWIDTH 14 0
BBX 14 14 0 1
BITMAP
0FC0
1870
6018
6018
C00C
C00C
C00C
C00C
C00C
E00C
600C
3018
1830
07C0
ENDCHAR
STARTCHAR one
ENCODING 49
SWIDTH 505 0
DWIDTH 10 0
BBX 10 18 0 -1
BITMAP
0800
0800
0C00
1C00
7C00
8C00
0C00
0C00
0600
0600
0600
0600
0600
0700
0700
0FC0
1C00
2000
ENDCHAR
STARTCHAR two
ENCODING 50
SWIDTH 534 0
DWIDTH 11 0
BBX 10 18 1 -2
BITMAP
3E00
7F00
C700
8380
8380
8300
8300
0200
0600
0C00
0800
3000
4000
E040
3C80
1F80
0700
0300
ENDCHAR
STARTCHAR three
ENCODING 51
SWIDTH 511 0
DWIDTH 10 0
BBX 10 17 0 -1
BITMAP
4000
7F80
6100
4200
4200
0400
0800
0600
0180
01C0
80C0
80C0
80C0
40C0
61C0
3F80
1F00
ENDCHAR
STARTCHAR four
ENCODING 52
SWIDTH 712 0
DWIDTH 14 0
BBX 14 19 0 -2
BITMAP
0080
0100
0300
0300
0D00
1180
1180
2180
4180
E1C0
1CC0
07C8
01F8
00F0
00E0
0060
0060
01F0
000C
ENDCHAR
STARTCHAR five
ENCODING 53
SWIDTH 757 0
DWIDTH 15 0
BBX 15 19 0 -2
BITMAP
00C2
00F2
017E
021C
020C
0400
0700
07C0
00E0
0070
4030
8038
8038
8030
8030
8070
4060
20C0
1F80
ENDCHAR
STARTCHAR six
ENCODING 54
SWIDTH 598 0
DWIDTH 12 0
BBX 12 16 0 0
BITMAP
0F80
1860
3020
6010
6000
EF80
F0C0
E060
E030
E030
E030
E030
6020
3060
38C0
0F80
ENDCHAR
STARTCHAR seven
ENCODING 55
SWIDTH 507 0
DWIDTH 10 0
BBX 10 16 0 -1
BITMAP
0040
FF80
C380
8100
8100
8200
0200
0600
0400
0C00
0C00
0800
1800
1800
3800
3800
ENDCHAR
STARTCHAR eight
ENCODING 56
SWIDTH 476 0
DWIDTH 10 0
BBX 10 16 0 -1
BITMAP
1E00
3100
7100
7100
7100
7A00
3E00
1F00
2780
4180
C0C0
80C0
C0C0
4080
6180
3E00
ENDCHAR
STARTCHAR nine
ENCODING 57
SWIDTH 601 0
DWIDTH 12 0
BBX 12 15 0 0
BITMAP
1F00
61C0
60E0
C060
C070
C070
C070
6070
70F0
1F70
0060
00E0
00C0
4180
3E00
ENDCHAR
STARTCHAR colon
ENCODING 58
SWIDTH 246 0
DWIDTH 5 0
BBX 3 11 1 -1
BITMAP
E0
E0
E0
00
00
00
00
00
E0
E0
E0
ENDCHAR
STARTCHAR semicolon
ENCODING 59
SWIDTH 266 0
DWIDTH 5 0
BBX 3 13 1 -4
BITMAP
E0
E0
E0
00
00
00
00
E0
E0
E0
40
40
80
ENDCHAR
STARTCHAR less
ENCODING 60
SWIDTH 522 0
DWIDTH 10 0
BBX 8 9 1 2
BITMAP
01
02
0C
10
60
C0
30
0C
03
ENDCHAR
STARTCHAR equal
ENCODING 61
SWIDTH 655 0
DWIDTH 13 0
BBX 11 4 1 4
BITMAP
07E0
F800
0000
FFC0
ENDCHAR
STARTCHAR greater
ENCODING 62
SWIDTH 533 0
DWIDTH 11 0
BBX 8 10 1 1
BITMAP
80
60
18
04
03
01
02
0C
10
60
ENDCHAR
STARTCHAR question
ENCODING 63
SWIDTH 564 0
DWIDTH 11 0
BBX 11 18 0 -2
BITMAP
1F00
61C0
40C0
C0E0
E0E0
F0C0
F1C0
7180
0300
0600
1800
1000
2000
2800
3800
0000
1800
1800
ENDCHAR
STARTCHAR at
ENCODING 64
SWIDTH 898 0
DWIDTH 18 0
BBX 16 20 1 -6
BITMAP
03F0
0C1C
1004
2002
6032
43B1
4C71
8831
9831
9831
9831
9C31
9C72
8FD2
479C
40E0
20E0
3060
1860
0780
ENDCHAR
STARTCHAR A
ENCODING 65
SWIDTH 784 0
DWIDTH 16 0
BBX 16 18 0 -2
BITMAP
0180
1F80
0380
03C0
04C0
04C0
04E0
0460
0E60
09F0
1870
1038
3038
F038
181C
001C
001F
0060
ENDCHAR
STARTCHAR B
ENCODING 66
SWIDTH 685 0
DWIDTH 14 0
BBX 13 20 0 -3
BITMAP
07C0
F8E0
3060
1860
1860
1860
18C0
1900
1FC0
1870
1838
1838
1818
1818
1838
1C30
1C70
3FC0
4000
8000
ENDCHAR
STARTCHAR C
ENCODING 67
SWIDTH 742 0
DWIDTH 15 0
BBX 15 19 0 -2
BITMAP
0008
0008
0008
07F8
1C38
3008
7004
6004
E000
E000
E000
E002
E002
E004
7004
7004
3808
1E10
07E0
ENDCHAR
STARTCHAR D
ENCODING 68
SWIDTH 726 0
DWIDTH 15 0
BBX 14 17 0 -4
BITMAP
4FE0
3878
1838
181C
181C
181C
181C
181C
181C
1818
1838
1C70
1F80
3C00
2000
4000
8000
ENDCHAR
STARTCHAR E
ENCODING 69
SWIDTH 557 0
DWIDTH 11 0
BBX 10 19 1 -3
BITMAP
0380
FC80
7080
7080
7000
3000
3000
3200
3E00
3200
3200
3200
3000
3000
1840
1840
1840
FFC0
00C0
ENDCHAR
STARTCHAR F
ENCODING 70
SWIDTH 533 0
DWIDTH 11 0
BBX 10 18 1 -1
BITMAP
00C0
0F40
F840
3840
3880
3800
3A00
3A00
1E00
1A00
1A00
1A00
1800
1800
1800
1800
3800
FE00
ENDCHAR
STARTCHAR G
ENCODING 71
SWIDTH 750 0
DWIDTH 15 0
BBX 15 15 0 0
BITMAP
0002
0002
07C4
1C3C
3018
7018
E010
E000
E00C
E1F8
E018
E018
7018
3828
1FC0
ENDCHAR
STARTCHAR H
ENCODING 72
SWIDTH 743 0
DWIDTH 15 0
BBX 15 20 0 -2
BITMAP
4000
3F00
180E
18F8
1818
1818
1818
1818
1818
1818
1FF8
1818
1818
1818
1818
1818
1818
1818
187E
FE00
ENDCHAR
STARTCHAR I
ENCODING 73
SWIDTH 438 0
DWIDTH 9 0
BBX 11 20 -1 -3
BITMAP
7FE0
1F00
0E00
0E00
0E00
0C00
0C00
0C00
0C00
0C00
0C00
0C00
0C00
0C00
0C00
0C00
0C00
0C00
1F00
E000
ENDCHAR
STARTCHAR J
ENCODING 74
SWIDTH 628 0
DWIDTH 13 0
BBX 14 24 0 -5
BITMAP
0004
0078
0FE0
01C0
01C0
00C0
00C0
00C0
00C0
00C0
00C0
00C0
00C0
00C0
00C0
00C0
0080
0180
7180
F900
F300
8200
C600
7800
ENDCHAR
STARTCHAR K
ENCODING 75
SWIDTH 866 0
DWIDTH 17 0
BBX 18 18 0 -2
BITMAP
060000
F84000
387C00
382000
384000
388000
190000
1B0000
1F8000
1B8000
19C080
18E080
18F040
1878C0
183F80
180F00
3C0000
020000
ENDCHAR
STARTCHAR L
ENCODING 76
SWIDTH 660 0
DWIDTH 13 0
BBX 12 15 1 0
BITMAP
8000
7F80
1C00
1C00
1C00
1C00
1C00
1800
1820
1820
1820
1810
1830
7FF0
8000
ENDCHAR
STARTCHAR M
ENCODING 77
SWIDTH 1089 0
DWIDTH 22 0
BBX 23 16 0 -1
BITMAP
000078
0000C0
1F00C0
0780C0
05C1C0
03C2C0
02E2C0
02F4E0
027C60
023860
023860
041070
641070
FC0078
F8007E
700180
ENDCHAR
STARTCHAR N
ENCODING 78
SWIDTH 799 0
DWIDTH 16 0
BBX 16 18 0 -4
BITMAP
FC3F
1E0C
1F04
1784
13C4
13E4
11F4
10FC
107C
103C
101C
1008
1008
1000
1000
3000
FC00
0400
ENDCHAR
STARTCHAR O
ENCODING 79
SWIDTH 747 0
DWIDTH 15 0
BBX 15 15 0 0
BITMAP
0FC0
1870
3038
601C
E01C
E01C
C00E
E00E
E00E
E00C
600C
701C
3018
1C30
0FC0
ENDCHAR
STARTCHAR P
ENCODING 80
SWIDTH 623 0
DWIDTH 12 0
BBX 13 18 0 -3
BITMAP
01E0
FE30
1C38
0C38
0C38
0C30
0C70
0FC0
0C00
0C00
0C00
0C00
0C00
0C00
0C00
1E00
1E00
61C0
ENDCHAR
STARTCHAR Q
ENCODING 81
SWIDTH 804 0
DWIDTH 16 0
BBX 23 24 0 -9
BITMAP
07E000
187800
301C00
600C00
600E00
C00E00
C00600
C00600
C00600
E00600
E0F600
609E00
710C00
390C00
1D1C00
07EE00
000600
000600
000702
000704
000384
0003C4
0001F8
0000F0
ENDCHAR
STARTCHAR R
ENCODING 82
SWIDTH 869 0
DWIDTH 17 0
BBX 18 15 0 -1
BITMAP
03E000
FC7000
3C3000
1C3000
1C3000
0C7000
0CF000
0FC000
0CC000
0CC000
0CE040
0C7040
0C3840
7E1FC0
010F80
ENDCHAR
STARTCHAR S
ENCODING 83
SWIDTH 517 0
DWIDTH 10 0
BBX 11 19 -1 -2
BITMAP
0060
0740
0CC0
1840
1840
1840
1C00
0E00
0700
0380
0380
01C0
80E0
80E0
40E0
4060
60E0
70C0
8F80
ENDCHAR
STARTCHAR T
ENCODING 84
SWIDTH 659 0
DWIDTH 13 0
BBX 13 21 0 -3
BITMAP
E000
FFF8
C118
8108
8108
4308
4300
0300
0300
0300
0300
0300
0300
0300
0300
0300
0380
0780
07F0
0C00
1000
ENDCHAR
STARTCHAR U
ENCODING 85
SWIDTH 690 0
DWIDTH 14 0
BBX 16 15 0 1
BITMAP
0180
0F00
7E00
BCFF
1C18
1C08
1C08
1C08
1C08
1C08
1C08
0C10
0E10
0620
03C0
ENDCHAR
STARTCHAR V
ENCODING 86
SWIDTH 798 0
DWIDTH 16 0
BBX 18 15 0 0
BITMAP
038000
FC0040
1E0080
0E0300
063E00
070400
030400
038800
01C800
01D000
00F000
00E000
00E000
006000
004000
ENDCHAR
STARTCHAR W
ENCODING 87
SWIDTH 1120 0
DWIDTH 22 0
BBX 26 17 -1 -2
BITMAP
00001000
00000FC0
00000600
06000400
0C000400
7C000800
9C100800
0C181000
0E3C1000
064C2000
074E2000
07874000
0387C000
0303C000
03038000
00018000
00010000
ENDCHAR
STARTCHAR X
ENCODING 88
SWIDTH 868 0
DWIDTH 17 0
BBX 18 16 0 0
BITMAP
018000
FF0000
1F0800
070700
038480
018800
01C800
00F000
00F000
00F000
013000
021800
021C00
0C0C00
7C0E00
067FC0
ENDCHAR
STARTCHAR Y
ENCODING 89
SWIDTH 796 0
DWIDTH 16 0
BBX 18 20 0 -3
BITMAP
060000
FC0C00
3807C0
1C0400
0E0800
070800
039000
01E000
01E000
00C000
00C000
00C000
00C000
00C000
00C000
00C000
00C000
01E000
07E000
001000
ENDCHAR
STARTCHAR Z
ENCODING 90
SWIDTH 627 0
DWIDTH 13 0
BBX 12 16 1 -2
BITMAP
8100
FF80
C700
8700
8E00
8E00
0C00
0C00
1C00
1840
1820
3020
3020
3070
63F0
7C00
ENDCHAR
STARTCHAR bracketleft
ENCODING 91
SWIDTH 344 0
DWIDTH 7 0
BBX 6 20 0 -4
BITMAP
38
64
60
60
60
60
60
60
60
E0
C0
C0
C0
C0
C0
C0
C0
E0
E0
7C
ENDCHAR
STARTCHAR backslash
ENCODING 92
SWIDTH 347 0
DWIDTH 7 0
BBX 7 22 0 -3
BITMAP
80
80
40
40
40
40
20
20
20
20
10
10
10
08
08
08
04
04
04
04
02
02
ENDCHAR
STARTCHAR bracketright
ENCODING 93
SWIDTH 334 0
DWIDTH 7 0
BBX 6 17 1 -4
BITMAP
70
98
18
18
18
18
18
18
18
18
18
18
18
1C
18
30
C0
ENDCHAR
STARTCHAR asciicircum
ENCODING 94
SWIDTH 658 0
DWIDTH 13 0
BBX 11 5 1 11
BITMAP
0400
0E00
1F00
6380
C0E0
ENDCHAR
STARTCHAR underscore
ENCODING 95
SWIDTH 678 0
DWIDTH 14 0
BBX 12 2 1 -7
BITMAP
1FF0
E000
ENDCHAR
STARTCHAR grave
ENCODING 96
SWIDTH 278 0
DWIDTH 6 0
BBX 4 4 1 15
BITMAP
C0
60
20
10
ENDCHAR
STARTCHAR a
ENCODING 97
SWIDTH 527 0
DWIDTH 11 0
BBX 11 15 0 -2
BITMAP
3C00
4600
4600
7300
7300
0300
0300
3F00
4300
C380
C380
FDA0
79A0
01E0
00C0
ENDCHAR
STARTCHAR b
ENCODING 98
SWIDTH 582 0
DWIDTH 12 0
BBX 13 23 -2 0
BITMAP
0800
0800
1800
F800
1800
1800
1800
0800
0800
0800
0800
0C00
0C00
0DE0
0E38
0C18
0C18
0C18
0C18
0C18
0E30
1FE0
3000
ENDCHAR
STARTCHAR c
ENCODING 99
SWIDTH 437 0
DWIDTH 9 0
BBX 8 11 0 1
BITMAP
1E
27
47
C6
C0
C1
C1
C1
41
61
3E
ENDCHAR
STARTCHAR d
ENCODING 100
SWIDTH 523 0
DWIDTH 10 0
BBX 11 19 0 1
BITMAP
0080
0380
0780
0180
0180
0180
0180
0180
0180
0180
0180
3F80
7180
E180
E180
E180
E180
7180
3FE0
ENDCHAR
STARTCHAR e
ENCODING 101
SWIDTH 434 0
DWIDTH 9 0
BBX 8 11 0 1
BITMAP
1E
23
63
C3
C7
FC
C0
E1
61
71
3E
ENDCHAR
STARTCHAR f
ENCODING 102
SWIDTH 299 0
DWIDTH 6 0
BBX 10 26 -1 -3
BITMAP
0380
0440
0840
08C0
0BC0
0980
1800
1800
1800
1F00
F800
1800
1800
1800
1800
1800
1800
1800
1800
1800
1800
1800
1800
1C00
1F00
6000
ENDCHAR
STARTCHAR g
ENCODING 103
SWIDTH 567 0
DWIDTH 11 0
BBX 12 20 0 -8
BITMAP
00E0
0130
1F30
31B0
7180
7180
7180
3180
1F00
3000
3000
1F00
31C0
60E0
E060
E060
E060
E040
7080
3F00
ENDCHAR
STARTCHAR h
ENCODING 104
SWIDTH 566 0
DWIDTH 11 0
BBX 12 21 0 1
BITMAP
0800
3800
F800
1800
1800
1800
1000
1000
1000
1000
1000
1000
1380
3DC0
38C0
30C0
30C0
30C0
30C0
30C0
FBF0
ENDCHAR
STARTCHAR i
ENCODING 105
SWIDTH 301 0
DWIDTH 6 0
BBX 6 14 0 2
BITMAP
30
30
00
08
F8
30
30
30
30
30
30
30
30
FC
ENDCHAR
STARTCHAR j
ENCODING 106
SWIDTH 367 0
DWIDTH 7 0
BBX 9 22 -2 -10
BITMAP
0600
0600
0000
3F00
0700
0300
0300
0380
0380
0180
0180
0180
0180
0180
0180
7100
F100
E100
8300
8200
8400
7800
ENDCHAR
STARTCHAR k
ENCODING 107
SWIDTH 567 0
DWIDTH 11 0
BBX 13 22 -2 -2
BITMAP
0800
1800
F800
1800
0800
0800
0800
0800
0800
0D00
0CF0
0C80
0D00
0F00
0F10
0D88
0DC8
0CF8
0C70
0C00
0E00
7F80
ENDCHAR
STARTCHAR l
ENCODING 108
SWIDTH 354 0
DWIDTH 7 0
BBX 8 18 -1 0
BITMAP
08
08
18
78
D8
18
18
18
18
18
0C
0C
0C
0C
0C
0C
0C
3F
ENDCHAR
STARTCHAR m
ENCODING 109
SWIDTH 708 0
DWIDTH 14 0
BBX 13 9 1 2
BITMAP
2000
EE70
73B0
3330
3330
3330
3730
F8F0
0008
ENDCHAR
STARTCHAR n
ENCODING 110
SWIDTH 584 0
DWIDTH 12 0
BBX 12 13 0 0
BITMAP
1000
31C0
73E0
B4E0
3860
1860
1860
1860
1860
1860
09E0
3C60
0210
ENDCHAR
STARTCHAR o
ENCODING 111
SWIDTH 503 0
DWIDTH 10 0
BBX 9 9 0 1
BITMAP
3E00
6300
E180
E180
E180
E180
E180
7300
3E00
ENDCHAR
STARTCHAR p
ENCODING 112
SWIDTH 509 0
DWIDTH 10 0
BBX 9 18 0 -8
BITMAP
1000
3700
F980
3180
3180
3180
3180
3300
3E00
3000
3000
3000
3000
3000
3000
3000
7000
FC00
ENDCHAR
STARTCHAR q
ENCODING 113
SWIDTH 505 0
DWIDTH 10 0
BBX 10 18 0 -8
BITMAP
3F80
6300
C300
C300
C300
E300
7F00
0300
0300
0300
0300
0300
0300
0300
0300
0300
1F00
01C0
ENDCHAR
STARTCHAR r
ENCODING 114
SWIDTH 414 0
DWIDTH 8 0
BBX 9 14 1 0
BITMAP
0700
2880
F380
7300
7000
3000
3000
3000
3000
3000
3000
3800
3C00
C000
ENDCHAR
STARTCHAR s
ENCODING 115
SWIDTH 482 0
DWIDTH 10 0
BBX 10 16 -1 -2
BITMAP
0080
0F80
1880
1880
1880
0C00
0E00
0700
0380
0180
11C0
20C0
20C0
60C0
9180
0F00
ENDCHAR
STARTCHAR t
ENCODING 116
SWIDTH 434 0
DWIDTH 9 0
BBX 8 16 0 0
BITMAP
08
08
08
18
3E
F8
30
30
60
60
60
60
63
71
31
1E
ENDCHAR
STARTCHAR u
ENCODING 117
SWIDTH 744 0
DWIDTH 15 0
BBX 15 11 0 0
BITMAP
0030
11F0
3830
F830
1830
1830
1830
1C50
0C5E
0FC0
0780
ENDCHAR
STARTCHAR v
ENCODING 118
SWIDTH 600 0
DWIDTH 12 0
BBX 12 12 0 -1
BITMAP
0C00
3800
F800
18F0
1C40
0C40
0C80
0680
0680
0300
0300
0200
ENDCHAR
STARTCHAR w
ENCODING 119
SWIDTH 745 0
DWIDTH 15 0
BBX 15 10 0 0
BITMAP
080E
3098
F888
39D0
3AF0
1A70
1E60
0C20
0C00
0800
ENDCHAR
STARTCHAR x
ENCODING 120
SWIDTH 548 0
DWIDTH 11 0
BBX 11 12 0 0
BITMAP
0600
F800
39E0
1C80
0D00
0E00
0600
0600
0F00
1300
7BE0
0400
ENDCHAR
STARTCHAR y
ENCODING 121
SWIDTH 659 0
DWIDTH 13 0
BBX 12 19 1 -9
BITMAP
0800
31F0
F0E0
7060
7060
3060
3060
30E0
1960
0E60
0040
0040
0040
00C0
1880
7C80
4900
2300
1C00
ENDCHAR
STARTCHAR z
ENCODING 122
SWIDTH 460 0
DWIDTH 9 0
BBX 9 11 0 1
BITMAP
6000
7F00
4200
8600
8600
0C00
1C00
1880
3880
7080
FF80
ENDCHAR
STARTCHAR braceleft
ENCODING 123
SWIDTH 460 0
DWIDTH 9 0
BBX 8 25 1 -6
BITMAP
0F
18
18
18
18
18
18
1C
1C
1C
38
F0
40
20
10
18
18
18
18
18
18
18
19
1D
0F
ENDCHAR
STARTCHAR bar
ENCODING 124
SWIDTH 368 0
DWIDTH 7 0
BBX 1 21 3 -4
BITMAP
80
80
80
80
80
80
80
80
80
80
80
80
80
80
80
80
80
80
80
80
80
ENDCHAR
STARTCHAR braceright
ENCODING 125
SWIDTH 476 0
DWIDTH 10 0
BBX 9 21 0 -5
BITMAP
7800
9C00
8C00
0C00
0C00
0C00
0C00
0600
0180
0300
0300
0300
0300
0300
0180
0180
0180
0180
0100
0300
0C00
ENDCHAR
STARTCHAR asciitilde
ENCODING 126
SWIDTH 733 0
DWIDTH 15 0
BBX 13 4 1 3
BITMAP
0008
3C10
47F0
81E0
ENDCHAR
STARTCHAR nonbreakingspace
ENCODING 160
SWIDTH 270 0
DWIDTH 5 0
BBX 1 1 0 0
BITMAP
00
ENDCHAR
STARTCHAR exclamdown
ENCODING 161
SWIDTH 247 0
DWIDTH 5 0
BBX 3 21 1 -2
BITMAP
E0
E0
E0
00
00
40
40
40
40
40
40
60
60
60
E0
E0
E0
E0
E0
E0
40
ENDCHAR
STARTCHAR cent
ENCODING 162
SWIDTH 799 0
DWIDTH 16 0
BBX 9 18 3 -5
BITMAP
2000
1000
1F00
3180
7180
6980
C980
C800
C800
C800
E480
6480
7500
1E00
0200
0200
0200
0100
ENDCHAR
STARTCHAR sterling
ENCODING 163
SWIDTH 799 0
DWIDTH 16 0
BBX 11 18 3 -2
BITMAP
0F00
1180
3180
6380
6380
7380
7000
3000
7E00
9800
1C00
0C00
0C00
0C00
7C40
8C20
9E20
71C0
ENDCHAR
STARTCHAR currency
ENCODING 164
SWIDTH 732 0
DWIDTH 15 0
BBX 12 14 2 1
BITMAP
0080
0100
9F00
6180
4040
8040
8040
8040
8080
4100
3E80
6060
4010
4000
ENDCHAR
STARTCHAR yen
ENCODING 165
SWIDTH 799 0
DWIDTH 16 0
BBX 15 21 1 -2
BITMAP
0202
FC0C
3C78
1C10
0E20
0620
0740
0340
03C0
03C0
0180
1FFC
0180
01F0
0F80
0180
0180
0180
01C0
03F0
0E00
ENDCHAR
STARTCHAR brokenbar
ENCODING 166
SWIDTH 341 0
DWIDTH 7 0
BBX 1 23 3 -5
BITMAP
80
80
80
80
80
80
80
80
80
00
00
80
80
80
80
80
80
80
80
80
80
80
80
ENDCHAR
STARTCHAR section
ENCODING 167
SWIDTH 546 0
DWIDTH 11 0
BBX 9 23 1 -6
BITMAP
1E00
3300
6180
6380
6380
7000
3800
3C00
4F00
C700
C180
E080
7080
7900
1E00
0E00
0300
0100
0100
0100
3100
3900
1E00
ENDCHAR
STARTCHAR dieresis
ENCODING 168
SWIDTH 393 0
DWIDTH 8 0
BBX 5 2 2 13
BITMAP
D8
D8
ENDCHAR
STARTCHAR copyright
ENCODING 169
SWIDTH 1023 0
DWIDTH 20 0
BBX 18 18 1 -3
BITMAP
03F000
0C0E00
100300
204180
43C080
464040
8C4040
8C2040
8C0040
8C2040
8C2040
862040
83C080
400080
600100
300200
1C0C00
07F000
ENDCHAR
STARTCHAR ordfeminine
ENCODING 170
SWIDTH 558 0
DWIDTH 11 0
BBX 9 10 1 6
BITMAP
7800
8800
CC00
CC00
3C00
4400
C480
CC80
CE80
7300
ENDCHAR
STARTCHAR guillemotleft
ENCODING 171
SWIDTH 608 0
DWIDTH 12 0
BBX 10 18 1 -5
BITMAP
0040
0040
0240
0480
0480
0C80
1980
3300
F300
F380
7180
38C0
1CC0
0C40
0640
0240
0300
0100
ENDCHAR
STARTCHAR logicalnot
ENCODING 172
SWIDTH 616 0
DWIDTH 12 0
BBX 10 4 1 5
BITMAP
FFC0
0040
0040
0040
ENDCHAR
STARTCHAR uni00AD
ENCODING 173
SWIDTH 436 0
DWIDTH 9 0
BBX 7 1 1 4
BITMAP
FE
ENDCHAR
STARTCHAR registered
ENCODING 174
SWIDTH 1048 0
DWIDTH 21 0
BBX 19 18 1 -4
BITMAP
03F800
0C0600
1FF180
233880
421840
431840
833020
83C020
834020
836220
836220
873220
4FDC40
400040
200080
100100
0C0600
03F800
ENDCHAR
STARTCHAR macron
ENCODING 175
SWIDTH 382 0
DWIDTH 8 0
BBX 6 1 1 16
BITMAP
FC
ENDCHAR
STARTCHAR degree
ENCODING 176
SWIDTH 346 0
DWIDTH 7 0
BBX 5 5 1 14
BITMAP
70
88
88
88
70
ENDCHAR
STARTCHAR plusminus
ENCODING 177
SWIDTH 580 0
DWIDTH 12 0
BBX 10 8 1 3
BITMAP
0400
0400
0400
7FC0
0400
0400
0000
FF80
ENDCHAR
STARTCHAR twosuperior
ENCODING 178
SWIDTH 365 0
DWIDTH 7 0
BBX 6 11 1 7
BITMAP
38
4C
0C
0C
08
10
60
C4
38
10
10
ENDCHAR
STARTCHAR threesuperior
ENCODING 179
SWIDTH 371 0
DWIDTH 7 0
BBX 7 10 0 7
BITMAP
78
90
10
38
0C
86
86
86
4C
38
ENDCHAR
STARTCHAR acute
ENCODING 180
SWIDTH 234 0
DWIDTH 5 0
BBX 3 4 1 15
BITMAP
20
60
C0
80
ENDCHAR
STARTCHAR mu
ENCODING 181
SWIDTH 634 0
DWIDTH 13 0
BBX 12 17 1 -6
BITMAP
C000
C300
C300
C300
C100
C120
C390
E390
DC90
C0E0
C000
C000
C000
C000
E000
E000
E000
ENDCHAR
STARTCHAR paragraph
ENCODING 182
SWIDTH 707 0
DWIDTH 14 0
BBX 14 24 0 -7
BITMAP
0008
0030
1FE0
7C60
FC60
FC60
FC60
FC40
FC40
7C40
1C40
0C40
0C60
0C60
0C60
0C60
0C60
0C60
0C60
0C70
0C7C
0C00
1C00
6000
ENDCHAR
STARTCHAR periodcentered
ENCODING 183
SWIDTH 238 0
DWIDTH 5 0
BBX 3 3 1 6
BITMAP
E0
E0
E0
ENDCHAR
STARTCHAR cedilla
ENCODING 184
SWIDTH 332 0
DWIDTH 7 0
BBX 5 7 1 -5
BITMAP
20
20
30
18
18
98
70
ENDCHAR
STARTCHAR onesuperior
ENCODING 185
SWIDTH 336 0
DWIDTH 7 0
BBX 6 9 0 9
BITMAP
08
10
30
50
10
10
10
F8
1C
ENDCHAR
STARTCHAR ordmasculine
ENCODING 186
SWIDTH 503 0
DWIDTH 10 0
BBX 9 9 1 6
BITMAP
3C00
4700
8300
8180
8180
C180
C100
6100
3E00
ENDCHAR
STARTCHAR guillemotright
ENCODING 187
SWIDTH 778 0
DWIDTH 16 0
BBX 14 18 1 -5
BITMAP
0400
0400
8200
8100
4180
70C0
3C70
0FBC
0778
0C60
18C0
1180
2100
2300
4200
4200
0400
0400
ENDCHAR
STARTCHAR onequarter
ENCODING 188
SWIDTH 876 0
DWIDTH 18 0
BBX 17 19 0 0
BITMAP
000200
080400
100400
300800
501000
101000
102000
104800
F84800
1C9800
011800
022800
024900
044D00
08FF00
080C00
100E00
201F80
400000
ENDCHAR
STARTCHAR onehalf
ENCODING 189
SWIDTH 762 0
DWIDTH 15 0
BBX 15 20 0 -1
BITMAP
0002
0804
1004
3008
5010
1010
1020
1040
F840
1C9C
016E
0206
0206
040C
0808
0830
10E2
203C
4018
0010
ENDCHAR
STARTCHAR threequarters
ENCODING 190
SWIDTH 922 0
DWIDTH 18 0
BBX 18 19 0 0
BITMAP
000100
000100
780200
900400
100400
380800
0C1000
862400
862400
864C00
4C8C00
389400
012500
024500
047F80
040600
080700
100FC0
101000
ENDCHAR
STARTCHAR questiondown
ENCODING 191
SWIDTH 571 0
DWIDTH 11 0
BBX 11 18 0 -2
BITMAP
0E00
0E00
0E00
0000
0C00
0400
0400
0400
0800
3800
73C0
73C0
E3E0
E0E0
E060
F040
7880
1F00
ENDCHAR
STARTCHAR Agrave
ENCODING 192
SWIDTH 784 0
DWIDTH 16 0
BBX 16 23 0 -2
BITMAP
1800
0C00
0400
0200
0000
0180
1F80
0380
03C0
04C0
04C0
04E0
0460
0E60
09F0
1870
1038
3038
F038
181C
001C
001F
0060
ENDCHAR
STARTCHAR Aacute
ENCODING 193
SWIDTH 784 0
DWIDTH 16 0
BBX 16 23 0 -2
BITMAP
0080
0180
0100
0200
0000
0180
1F80
0380
03C0
04C0
04C0
04E0
0460
0E60
09F0
1870
1038
3038
F038
181C
001C
001F
0060
ENDCHAR
STARTCHAR Acircumflex
ENCODING 194
SWIDTH 784 0
DWIDTH 16 0
BBX 16 23 0 -2
BITMAP
0100
0380
04C0
0820
0000
0180
1F80
0380
03C0
04C0
04C0
04E0
0460
0E60
09F0
1870
1038
3038
F038
181C
001C
001F
0060
ENDCHAR
STARTCHAR Atilde
ENCODING 195
SWIDTH 784 0
DWIDTH 16 0
BBX 16 23 0 -2
BITMAP
0600
1BC0
11C0
0000
0000
0180
1F80
0380
03C0
04C0
04C0
04E0
0460
0E60
09F0
1870
1038
3038
F038
181C
001C
001F
0060
ENDCHAR
STARTCHAR Adieresis
ENCODING 196
SWIDTH 784 0
DWIDTH 16 0
BBX 16 22 0 -2
BITMAP
0600
0740
0660
0000
0180
1F80
0380
03C0
04C0
04C0
04E0
0460
0E60
09F0
1870
1038
3038
F038
181C
001C
001F
0060
ENDCHAR
STARTCHAR Aring
ENCODING 197
SWIDTH 784 0
DWIDTH 16 0
BBX 16 24 0 -2
BITMAP
0380
0440
0440
0440
0380
0000
0180
1F80
0380
03C0
04C0
04C0
04E0
0460
0E60
09F0
1870
1038
3038
F038
181C
001C
001F
0060
ENDCHAR
STARTCHAR AE
ENCODING 198
SWIDTH 1172 0
DWIDTH 23 0
BBX 23 20 0 -3
BITMAP
000070
0007F0
00FC10
001C20
002C20
002C20
004E20
004E60
004FE0
008E20
008E22
00FE02
010602
010702
020706
02071E
0407E0
0C0700
180C00
FE1000
ENDCHAR
STARTCHAR Ccedilla
ENCODING 199
SWIDTH 742 0
DWIDTH 15 0
BBX 15 25 0 -8
BITMAP
0008
0008
0008
07F8
1C38
3008
7004
6004
E000
E000
E000
E002
E002
E004
7004
7004
3808
1E10
07E0
0100
0080
01C0
0060
0240
01C0
ENDCHAR
STARTCHAR Egrave
ENCODING 200
SWIDTH 557 0
DWIDTH 11 0
BBX 10 24 1 -3
BITMAP
4000
6000
3000
0800
0000
0380
FC80
7080
7080
7000
3000
3000
3200
3E00
3200
3200
3200
3000
3000
1840
1840
1840
FFC0
00C0
ENDCHAR
STARTCHAR Eacute
ENCODING 201
SWIDTH 557 0
DWIDTH 11 0
BBX 10 24 1 -3
BITMAP
0200
0600
0400
0800
0000
0380
FC80
7080
7080
7000
3000
3000
3200
3E00
3200
3200
3200
3000
3000
1840
1840
1840
FFC0
00C0
ENDCHAR
STARTCHAR Ecircumflex
ENCODING 202
SWIDTH 557 0
DWIDTH 11 0
BBX 10 24 1 -3
BITMAP
0800
1C00
2600
4180
0000
0380
FC80
7080
7080
7000
3000
3000
3200
3E00
3200
3200
3200
3000
3000
1840
1840
1840
FFC0
00C0
ENDCHAR
STARTCHAR Edieresis
ENCODING 203
SWIDTH 557 0
DWIDTH 11 0
BBX 10 23 1 -3
BITMAP
3000
7A00
3700
0000
0380
FC80
7080
7080
7000
3000
3000
3200
3E00
3200
3200
3200
3000
3000
1840
1840
1840
FFC0
00C0
ENDCHAR
STARTCHAR Igrave
ENCODING 204
SWIDTH 438 0
DWIDTH 9 0
BBX 11 25 -1 -3
BITMAP
1000
1800
0C00
0200
0000
7FE0
1F00
0E00
0E00
0E00
0C00
0C00
0C00
0C00
0C00
0C00
0C00
0C00
0C00
0C00
0C00
0C00
0C00
1F00
E000
ENDCHAR
STARTCHAR Iacute
ENCODING 205
SWIDTH 438 0
DWIDTH 9 0
BBX 11 25 -1 -3
BITMAP
0080
0100
0300
0200
0000
7FE0
1F00
0E00
0E00
0E00
0C00
0C00
0C00
0C00
0C00
0C00
0C00
0C00
0C00
0C00
0C00
0C00
0C00
1F00
E000
ENDCHAR
STARTCHAR Icircumflex
ENCODING 206
SWIDTH 438 0
DWIDTH 9 0
BBX 11 25 -1 -3
BITMAP
0400
0600
0980
30C0
0000
7FE0
1F00
0E00
0E00
0E00
0C00
0C00
0C00
0C00
0C00
0C00
0C00
0C00
0C00
0C00
0C00
0C00
0C00
1F00
E000
ENDCHAR
STARTCHAR Idieresis
ENCODING 207
SWIDTH 438 0
DWIDTH 9 0
BBX 11 24 -1 -3
BITMAP
1800
1D80
1980
0000
7FE0
1F00
0E00
0E00
0E00
0C00
0C00
0C00
0C00
0C00
0C00
0C00
0C00
0C00
0C00
0C00
0C00
0C00
1F00
E000
ENDCHAR
STARTCHAR Eth
ENCODING 208
SWIDTH 730 0
DWIDTH 15 0
BBX 15 16 0 -4
BITMAP
7FE0
38F0
1838
183C
181C
181E
181E
FE1E
181C
181C
1838
1830
1CE0
3F00
2000
C000
ENDCHAR
STARTCHAR Ntilde
ENCODING 209
SWIDTH 799 0
DWIDTH 16 0
BBX 16 23 0 -4
BITMAP
01C0
0278
0238
0000
0000
FC3F
1E0C
1F04
1784
13C4
13E4
11F4
10FC
107C
103C
101C
1008
1008
1000
1000
3000
FC00
0400
ENDCHAR
STARTCHAR Ograve
ENCODING 210
SWIDTH 747 0
DWIDTH 15 0
BBX 15 21 0 0
BITMAP
0800
1C00
0600
0200
0100
0000
0FC0
1870
3038
601C
E01C
E01C
C00E
E00E
E00E
E00C
600C
701C
3018
1C30
0FC0
ENDCHAR
STARTCHAR Oacute
ENCODING 211
SWIDTH 747 0
DWIDTH 15 0
BBX 15 21 0 0
BITMAP
0080
0180
0100
0200
0000
0000
0FC0
1870
3038
601C
E01C
E01C
C00E
E00E
E00E
E00C
600C
701C
3018
1C30
0FC0
ENDCHAR
STARTCHAR Ocircumflex
ENCODING 212
SWIDTH 747 0
DWIDTH 15 0
BBX 15 21 0 0
BITMAP
0200
0300
04C0
1860
0000
0000
0FC0
1870
3038
601C
E01C
E01C
C00E
E00E
E00E
E00C
600C
701C
3018
1C30
0FC0
ENDCHAR
STARTCHAR Otilde
ENCODING 213
SWIDTH 747 0
DWIDTH 15 0
BBX 15 20 0 0
BITMAP
0700
0BE0
08C0
0000
0000
0FC0
1870
3038
601C
E01C
E01C
C00E
E00E
E00E
E00C
600C
701C
3018
1C30
0FC0
ENDCHAR
STARTCHAR Odieresis
ENCODING 214
SWIDTH 747 0
DWIDTH 15 0
BBX 15 20 0 0
BITMAP
0600
0EC0
06C0
0000
0000
0FC0
1870
3038
601C
E01C
E01C
C00E
E00E
E00E
E00C
600C
701C
3018
1C30
0FC0
ENDCHAR
STARTCHAR multiply
ENCODING 215
SWIDTH 541 0
DWIDTH 11 0
BBX 9 12 1 0
BITMAP
0080
0100
0200
4200
2400
1800
1400
2200
2100
4000
8000
8000
ENDCHAR
STARTCHAR Oslash
ENCODING 216
SWIDTH 747 0
DWIDTH 15 0
BBX 15 19 0 -2
BITMAP
0004
0004
0FC8
1870
3038
603C
E05C
E0CE
C08E
E10E
E20E
E40E
640C
780C
3018
1C30
2FC0
4000
8000
ENDCHAR
STARTCHAR Ugrave
ENCODING 217
SWIDTH 690 0
DWIDTH 14 0
BBX 16 21 0 1
BITMAP
0600
0300
0180
0080
0000
0000
0180
0F00
7E00
BCFF
1C18
1C08
1C08
1C08
1C08
1C08
1C08
0C10
0E10
0620
03C0
ENDCHAR
STARTCHAR Uacute
ENCODING 218
SWIDTH 690 0
DWIDTH 14 0
BBX 16 18 0 1
BITMAP
0008
0018
0010
01A0
0F00
7E00
BCFF
1C18
1C08
1C08
1C08
1C08
1C08
1C08
0C10
0E10
0620
03C0
ENDCHAR
STARTCHAR Ucircumflex
ENCODING 219
SWIDTH 690 0
DWIDTH 14 0
BBX 16 19 0 1
BITMAP
0080
01C0
0260
0430
0180
0F00
7E00
BCFF
1C18
1C08
1C08
1C08
1C08
1C08
1C08
0C10
0E10
0620
03C0
ENDCHAR
STARTCHAR Udieresis
ENCODING 220
SWIDTH 690 0
DWIDTH 14 0
BBX 16 19 0 1
BITMAP
0300
0720
0360
0000
0180
0F00
7E00
BCFF
1C18
1C08
1C08
1C08
1C08
1C08
1C08
0C10
0E10
0620
03C0
ENDCHAR
STARTCHAR Yacute
ENCODING 221
SWIDTH 796 0
DWIDTH 16 0
BBX 18 24 0 -3
BITMAP
000800
001800
001000
002000
060000
FC0C00
3807C0
1C0400
0E0800
070800
039000
01E000
01E000
00C000
00C000
00C000
00C000
00C000
00C000
00C000
00C000
01E000
07E000
001000
ENDCHAR
STARTCHAR Thorn
ENCODING 222
SWIDTH 479 0
DWIDTH 10 0
BBX 10 20 0 -1
BITMAP
FC00
3000
3000
3000
3F00
3380
31C0
31C0
31C0
3380
3F00
3000
3000
3000
3000
3000
3000
3000
7000
FC00
ENDCHAR
STARTCHAR germandbls
ENCODING 223
SWIDTH 591 0
DWIDTH 12 0
BBX 13 21 -1 -2
BITMAP
1C00
2600
4300
4300
4300
4300
4200
6200
6C00
2F80
21E0
30F0
3070
3030
3038
1818
1810
1B10
1FB0
39E0
C000
ENDCHAR
STARTCHAR agrave
ENCODING 224
SWIDTH 527 0
DWIDTH 11 0
BBX 11 20 0 -2
BITMAP
4000
6000
3000
1800
0000
3C00
4600
4600
7300
7300
0300
0300
3F00
4300
C380
C380
FDA0
79A0
01E0
00C0
ENDCHAR
STARTCHAR aacute
ENCODING 225
SWIDTH 527 0
DWIDTH 11 0
BBX 11 20 0 -2
BITMAP
0200
0600
0400
0800
0000
3C00
4600
4600
7300
7300
0300
0300
3F00
4300
C380
C380
FDA0
79A0
01E0
00C0
ENDCHAR
STARTCHAR acircumflex
ENCODING 226
SWIDTH 527 0
DWIDTH 11 0
BBX 11 19 0 -2
BITMAP
0800
1C00
1300
6180
3C00
4600
4600
7300
7300
0300
0300
3F00
4300
C380
C380
FDA0
79A0
01E0
00C0
ENDCHAR
STARTCHAR atilde
ENCODING 227
SWIDTH 527 0
DWIDTH 11 0
BBX 11 18 0 -2
BITMAP
1C00
2F80
4700
3C00
4600
4600
7300
7300
0300
0300
3F00
4300
C380
C380
FDA0
79A0
01E0
00C0
ENDCHAR
STARTCHAR adieresis
ENCODING 228
SWIDTH 527 0
DWIDTH 11 0
BBX 11 18 0 -2
BITMAP
3600
3600
0000
3C00
4600
4600
7300
7300
0300
0300
3F00
4300
C380
C380
FDA0
79A0
01E0
00C0
ENDCHAR
STARTCHAR aring
ENCODING 229
SWIDTH 527 0
DWIDTH 11 0
BBX 11 21 0 -2
BITMAP
0E00
1200
2100
1200
1E00
0000
3C00
4600
4600
7300
7300
0300
0300
3F00
4300
C380
C380
FDA0
79A0
01E0
00C0
ENDCHAR
STARTCHAR ae
ENCODING 230
SWIDTH 700 0
DWIDTH 14 0
BBX 13 13 0 -2
BITMAP
00F0
7118
4A18
CC18
6C18
1C70
6FC0
4408
C608
C608
CF08
FBF8
71F0
ENDCHAR
STARTCHAR ccedilla
ENCODING 231
SWIDTH 437 0
DWIDTH 9 0
BBX 8 17 0 -5
BITMAP
1E
27
47
C6
C0
C1
C1
C1
41
61
3E
08
0C
0E
06
26
1C
ENDCHAR
STARTCHAR egrave
ENCODING 232
SWIDTH 434 0
DWIDTH 9 0
BBX 8 16 0 1
BITMAP
60
30
18
08
00
1E
23
63
C3
C7
FC
C0
E1
61
71
3E
ENDCHAR
STARTCHAR eacute
ENCODING 233
SWIDTH 434 0
DWIDTH 9 0
BBX 8 16 0 1
BITMAP
02
06
04
08
00
1E
23
63
C3
C7
FC
C0
E1
61
71
3E
ENDCHAR
STARTCHAR ecircumflex
ENCODING 234
SWIDTH 434 0
DWIDTH 9 0
BBX 9 17 0 1
BITMAP
0800
1C00
2600
4180
0000
0000
1E00
2300
6300
C300
C700
FC00
C000
E100
6100
7100
3E00
ENDCHAR
STARTCHAR edieresis
ENCODING 235
SWIDTH 434 0
DWIDTH 9 0
BBX 8 14 0 1
BITMAP
12
1B
00
1E
23
63
C3
C7
FC
C0
E1
61
71
3E
ENDCHAR
STARTCHAR igrave
ENCODING 236
SWIDTH 301 0
DWIDTH 6 0
BBX 7 16 -1 2
BITMAP
C0
60
30
10
00
04
7C
18
18
18
18
18
18
18
18
7E
ENDCHAR
STARTCHAR iacute
ENCODING 237
SWIDTH 301 0
DWIDTH 6 0
BBX 6 16 0 2
BITMAP
08
18
10
20
00
08
F8
30
30
30
30
30
30
30
30
FC
ENDCHAR
STARTCHAR icircumflex
ENCODING 238
SWIDTH 301 0
DWIDTH 6 0
BBX 8 16 -1 2
BITMAP
18
18
26
C3
00
04
7C
18
18
18
18
18
18
18
18
7E
ENDCHAR
STARTCHAR idieresis
ENCODING 239
SWIDTH 301 0
DWIDTH 6 0
BBX 6 14 0 2
BITMAP
6C
6C
00
08
F8
30
30
30
30
30
30
30
30
FC
ENDCHAR
STARTCHAR eth
ENCODING 240
SWIDTH 476 0
DWIDTH 10 0
BBX 11 18 -1 -2
BITMAP
0100
0200
3E00
4300
8D80
0880
00C0
00C0
00C0
0FC0
18C0
18E0
3060
3040
3840
1840
1CC0
0780
ENDCHAR
STARTCHAR ntilde
ENCODING 241
SWIDTH 584 0
DWIDTH 12 0
BBX 12 17 0 0
BITMAP
0700
0BE0
08C0
0000
1000
31C0
73E0
B4E0
3860
1860
1860
1860
1860
1860
09E0
3C60
0210
ENDCHAR
STARTCHAR ograve
ENCODING 242
SWIDTH 400 0
DWIDTH 8 0
BBX 13 16 0 3
BITMAP
0018
0038
4018
6008
3008
0810
0020
0020
00C0
3F00
6400
C600
C600
C600
CE00
3C00
ENDCHAR
STARTCHAR oacute
ENCODING 243
SWIDTH 400 0
DWIDTH 8 0
BBX 13 16 0 3
BITMAP
0018
0038
0018
0208
0608
0410
0820
0020
00C0
3F00
6400
C600
C600
C600
CE00
3C00
ENDCHAR
STARTCHAR ocircumflex
ENCODING 244
SWIDTH 400 0
DWIDTH 8 0
BBX 13 16 0 3
BITMAP
0018
0038
0818
1C08
2608
4110
0020
0020
00C0
3F00
6400
C600
C600
C600
CE00
3C00
ENDCHAR
STARTCHAR otilde
ENCODING 245
SWIDTH 400 0
DWIDTH 8 0
BBX 13 16 0 3
BITMAP
0018
0038
0018
0008
1808
2F10
4720
0020
00C0
3F00
6400
C600
C600
C600
CE00
3C00
ENDCHAR
STARTCHAR odieresis
ENCODING 246
SWIDTH 400 0
DWIDTH 8 0
BBX 13 16 0 3
BITMAP
0018
0038
0018
0008
0008
3610
3620
0020
00C0
3F00
6400
C600
C600
C600
CE00
3C00
ENDCHAR
STARTCHAR divide
ENCODING 247
SWIDTH 592 0
DWIDTH 12 0
BBX 9 8 1 2
BITMAP
1800
1800
0000
0000
FF80
0000
1800
1800
ENDCHAR
STARTCHAR oslash
ENCODING 248
SWIDTH 396 0
DWIDTH 8 0
BBX 7 12 0 0
BITMAP
08
08
3C
4E
D6
D6
E6
EC
78
20
40
40
ENDCHAR
STARTCHAR ugrave
ENCODING 249
SWIDTH 744 0
DWIDTH 15 0
BBX 15 16 0 0
BITMAP
0C00
0600
0300
0100
0000
0030
11F0
3830
F830
1830
1830
1830
1C50
0C5E
0FC0
0780
ENDCHAR
STARTCHAR uacute
ENCODING 250
SWIDTH 744 0
DWIDTH 15 0
BBX 15 16 0 0
BITMAP
0080
0180
0100
0200
0000
0030
11F0
3830
F830
1830
1830
1830
1C50
0C5E
0FC0
0780
ENDCHAR
STARTCHAR ucircumflex
ENCODING 251
SWIDTH 744 0
DWIDTH 15 0
BBX 15 16 0 0
BITMAP
0200
0700
0980
10C0
0000
0030
11F0
3830
F830
1830
1830
1830
1C50
0C5E
0FC0
0780
ENDCHAR
STARTCHAR udieresis
ENCODING 252
SWIDTH 744 0
DWIDTH 15 0
BBX 15 14 0 0
BITMAP
06C0
06C0
0000
0030
11F0
3830
F830
1830
1830
1830
1C50
0C5E
0FC0
0780
ENDCHAR
STARTCHAR yacute
ENCODING 253
SWIDTH 659 0
DWIDTH 13 0
BBX 12 23 1 -9
BITMAP
0080
0180
0100
0200
0800
31F0
F0E0
7060
7060
3060
3060
30E0
1960
0E60
0040
0040
0040
00C0
1880
7C80
4900
2300
1C00
ENDCHAR
STARTCHAR thorn
ENCODING 254
SWIDTH 514 0
DWIDTH 10 0
BBX 11 30 -1 -13
BITMAP
0800
3800
F000
3000
3000
1000
1000
1000
1780
19C0
18E0
18E0
1860
1860
1860
18E0
18E0
1FC0
1800
1800
1800
1800
1800
1800
1800
1C00
1C00
1C00
7C00
0300
ENDCHAR
STARTCHAR ydieresis
ENCODING 255
SWIDTH 659 0
DWIDTH 13 0
BBX 12 23 1 -9
BITMAP
06C0
0480
0000
0000
0800
31F0
F0E0
7060
7060
3060
3060
30E0
1960
0E60
0040
0040
0040
00C0
1880
7C80
4900
2300
1C00
ENDCHAR
STARTCHAR dotlessi
ENCODING 305
SWIDTH 301 0
DWIDTH 6 0
BBX 6 11 0 2
BITMAP
08
F8
30
30
30
30
30
30
30
30
FC
ENDCHAR
STARTCHAR OE
ENCODING 338
SWIDTH 1132 0
DWIDTH 23 0
BBX 23 20 0 -3
BITMAP
000010
000030
07CFF0
187610
301E08
600E00
600E00
E00E20
E00630
E00620
E007E0
E00620
700720
700F00
380F02
1E1702
07E702
00070E
0007FE
003C00
ENDCHAR
STARTCHAR oe
ENCODING 339
SWIDTH 798 0
DWIDTH 16 0
BBX 15 10 0 1
BITMAP
3C38
4664
C3C4
C3C4
C1CC
C1FA
E1C2
72C2
3C62
003C
ENDCHAR
STARTCHAR circumflex
ENCODING 710
SWIDTH 483 0
DWIDTH 10 0
BBX 8 4 1 14
BITMAP
10
38
26
C3
ENDCHAR
STARTCHAR caron
ENCODING 711
SWIDTH 428 0
DWIDTH 9 0
BBX 7 5 1 14
BITMAP
86
48
70
30
20
ENDCHAR
STARTCHAR ring
ENCODING 730
SWIDTH 330 0
DWIDTH 7 0
BBX 5 5 1 17
BITMAP
70
88
88
88
70
ENDCHAR
STARTCHAR tilde
ENCODING 732
SWIDTH 433 0
DWIDTH 9 0
BBX 7 3 1 15
BITMAP
70
BE
9C
ENDCHAR
STARTCHAR mu.dup1
ENCODING 956
SWIDTH 634 0
DWIDTH 13 0
BBX 12 17 1 -6
BITMAP
C000
C300
C300
C300
C100
C120
C390
E390
DC90
C0E0
C000
C000
C000
C000
E000
E000
E000
ENDCHAR
STARTCHAR endash
ENCODING 8211
SWIDTH 436 0
DWIDTH 9 0
BBX 7 1 1 4
BITMAP
FE
ENDCHAR
STARTCHAR emdash
ENCODING 8212
SWIDTH 651 0
DWIDTH 13 0
BBX 11 2 1 4
BITMAP
0FE0
F000
ENDCHAR
STARTCHAR quoteleft
ENCODING 8216
SWIDTH 287 0
DWIDTH 6 0
BBX 3 6 1 11
BITMAP
20
40
C0
E0
E0
E0
ENDCHAR
STARTCHAR quoteright
ENCODING 8217
SWIDTH 291 0
DWIDTH 6 0
BBX 4 7 1 9
BITMAP
E0
F0
F0
70
30
20
40
ENDCHAR
STARTCHAR quotesinglbase
ENCODING 8218
SWIDTH 272 0
DWIDTH 5 0
BBX 3 7 1 -4
BITMAP
E0
E0
E0
60
40
40
80
ENDCHAR
STARTCHAR quotedblleft
ENCODING 8220
SWIDTH 445 0
DWIDTH 9 0
BBX 7 7 1 9
BITMAP
30
46
44
CC
EE
EE
E0
ENDCHAR
STARTCHAR quotedblright
ENCODING 8221
SWIDTH 444 0
DWIDTH 9 0
BBX 7 8 1 9
BITMAP
C0
EE
EE
6E
26
44
84
18
ENDCHAR
STARTCHAR quotedblbase
ENCODING 8222
SWIDTH 482 0
DWIDTH 10 0
BBX 7 8 1 -6
BITMAP
C0
EE
EE
6E
26
44
44
08
ENDCHAR
STARTCHAR bullet
ENCODING 8226
SWIDTH 351 0
DWIDTH 7 0
BBX 5 5 1 6
BITMAP
70
F8
F8
F8
70
ENDCHAR
STARTCHAR guilsinglleft
ENCODING 8249
SWIDTH 465 0
DWIDTH 9 0
BBX 7 13 1 -2
BITMAP
04
04
08
18
30
60
F0
70
18
0C
04
02
02
ENDCHAR
STARTCHAR guilsinglright
ENCODING 8250
SWIDTH 449 0
DWIDTH 9 0
BBX 7 13 1 -2
BITMAP
80
40
60
30
18
1E
1C
38
30
60
40
80
80
ENDCHAR
STARTCHAR fraction
ENCODING 8260
SWIDTH 406 0
DWIDTH 8 0
BBX 13 19 -3 0
BITMAP
0008
0008
0010
0010
0020
0040
0040
0080
0100
0300
0200
0400
0800
0800
1000
2000
4000
4000
8000
ENDCHAR
STARTCHAR foursuperior
ENCODING 8308
SWIDTH 473 0
DWIDTH 9 0
BBX 9 11 0 8
BITMAP
0800
0800
1800
1800
2800
4A00
8A00
FF00
0C00
0E00
3F80
ENDCHAR
STARTCHAR Euro
ENCODING 8364
SWIDTH 799 0
DWIDTH 16 0
BBX 17 17 -1 -1
BITMAP
000080
00F880
038780
070300
060100
0E0100
0C2100
1CC000
1F0000
7DC000
1E0000
7C0400
9C0400
0E0400
0E0400
070800
01F000
ENDCHAR
STARTCHAR minus
ENCODING 8722
SWIDTH 436 0
DWIDTH 9 0
BBX 7 1 1 4
BITMAP
FE
ENDCHAR
STARTCHAR f_f
ENCODING 64256
SWIDTH 467 0
DWIDTH 9 0
BBX 11 30 1 -7
BITMAP
0E00
3600
2600
27C0
4660
44E0
4DE0
48C0
4800
4800
4800
5F00
EC00
4C00
6C00
6C00
6400
6400
6600
6600
6600
7700
33C0
3600
3800
3000
3000
3800
7800
FE00
ENDCHAR
STARTCHAR .notdef
ENCODING -1
SWIDTH 270 0
DWIDTH 5 0
BBX 4 12 1 0
BITMAP
F0
90
90
90
90
90
90
90
90
90
90
F0
ENDCHAR
STARTCHAR .null
ENCODING -1
SWIDTH 0 0
DWIDTH 0 0
BBX 1 1 0 0
BITMAP
00
ENDCHAR
STARTCHAR nonmarkingreturn
ENCODING -1
SWIDTH 270 0
DWIDTH 5 0
BBX 1 1 0 0
BITMAP
00
ENDCHAR
STARTCHAR dieresis.case
ENCODING -1
SWIDTH 393 0
DWIDTH 8 0
BBX 6 3 1 15
BITMAP
E0
EC
EC
ENDCHAR
STARTCHAR o.cmp
ENCODING -1
SWIDTH 400 0
DWIDTH 8 0
BBX 13 16 0 3
BITMAP
0018
0038
0018
0008
0008
0010
0020
0020
00C0
3F00
6400
C600
C600
C600
CE00
3C00
ENDCHAR
STARTCHAR n_n
ENCODING -1
SWIDTH 1024 0
DWIDTH 21 0
BBX 21 13 0 0
BITMAP
100000
31C000
F3E200
34EE00
1866E0
186730
186630
186630
186630
186630
086F70
3DF0F0
003008
ENDCHAR
STARTCHAR a_a
ENCODING -1
SWIDTH 911 0
DWIDTH 18 0
BBX 19 14 0 -2
BITMAP
003C00
004600
00E200
786300
4C0300
C47B00
C4C700
05A300
3DE300
E5A300
C4EF00
CE7320
73C340
0001C0
ENDCHAR
STARTCHAR t_h
ENCODING -1
SWIDTH 854 0
DWIDTH 17 0
BBX 17 26 0 -4
BITMAP
004000
01C000
0FC000
00C000
00C000
00C000
06C000
04C000
1C8000
FFE000
188000
189E00
18A300
18C300
19C380
199980
199980
198980
0D8B80
0F9300
03E300
01C300
03E300
0C0700
001F00
000080
ENDCHAR
STARTCHAR s_s
ENCODING -1
SWIDTH 654 0
DWIDTH 13 0
BBX 13 18 0 -3
BITMAP
0180
0F08
19F8
1A88
1988
0890
0CC0
06C0
0360
41F0
41B0
4FB8
4D98
AB18
1E18
0838
0430
03E0
ENDCHAR
STARTCHAR t_t
ENCODING -1
SWIDTH 569 0
DWIDTH 11 0
BBX 11 18 0 -2
BITMAP
0200
0E00
0E40
3F80
FE00
3600
3600
3600
3600
3600
3660
3260
3320
31C0
1000
18C0
0CC0
0780
ENDCHAR
STARTCHAR e_e
ENCODING -1
SWIDTH 782 0
DWIDTH 16 0
BBX 16 11 0 0
BITMAP
3C78
64C4
C684
C584
CD84
F184
E18A
61D1
38E1
0FE2
003C
ENDCHAR
STARTCHAR o_o
ENCODING -1
SWIDTH 751 0
DWIDTH 15 0
BBX 20 17 0 1
BITMAP
000030
000070
000030
000010
000010
000020
000020
000040
3C0180
63DE00
E18800
C10C00
C38C00
C30C00
C11800
63F000
3E0000
ENDCHAR
STARTCHAR l_l
ENCODING -1
SWIDTH 573 0
DWIDTH 11 0
BBX 13 20 -1 -3
BITMAP
0840
3BC0
59C0
18C0
18C0
18C0
18C0
18C0
18C0
18C0
18C0
18C0
18C0
18C0
18E0
18E0
19F8
FE00
0C00
0200
ENDCHAR
STARTCHAR z_z
ENCODING -1
SWIDTH 875 0
DWIDTH 18 0
BBX 18 15 0 -1
BITMAP
021800
03F000
043000
002000
3FE000
476000
464000
0EC000
1DC400
198400
39FCC0
3001C0
6000C0
FFC080
007F00
ENDCHAR
STARTCHAR j_j
ENCODING -1
SWIDTH 577 0
DWIDTH 12 0
BBX 13 28 -2 -13
BITMAP
00E0
00E0
06E0
0640
03E0
00E0
3F60
0770
03B0
03B0
03B0
03B8
01B8
0198
0198
0198
0198
0198
7198
F118
E118
8318
8210
8410
7A10
0720
0740
0380
ENDCHAR
STARTCHAR f_b
ENCODING -1
SWIDTH 731 0
DWIDTH 15 0
BBX 16 26 -1 -3
BITMAP
0380
0440
0840
08C0
09C0
0BC0
1820
19E0
1AE0
7F60
9860
1860
1860
1860
1860
1860
187E
1863
1863
1863
1867
18FE
1900
1C00
1F00
6000
ENDCHAR
STARTCHAR f_k
ENCODING -1
SWIDTH 708 0
DWIDTH 14 0
BBX 13 22 1 -2
BITMAP
0400
1C00
7F00
1D80
1D80
2F80
2F80
6C00
6C00
ED00
6CE0
6C80
6D00
6F20
6D10
6D88
6DC8
6CF8
6C70
6E00
EE00
7F80
ENDCHAR
STARTCHAR f_h
ENCODING -1
SWIDTH 873 0
DWIDTH 17 0
BBX 19 26 -1 -3
BITMAP
038000
044000
084000
08C000
0BC000
099000
187000
19E000
196000
1E2000
F82000
186000
186000
186000
186000
186F00
187180
187180
186180
186180
186180
186180
18E3E0
1BF400
1F0000
600000
ENDCHAR
ENDFONT
